<svg version="1.1" id="Layer_1" xmlns="http://www.w3.org/2000/svg" xmlns:xlink="http://www.w3.org/1999/xlink" x="0px" y="0px"
	 width="100%" viewBox="0 0 241 312" enable-background="new 0 0 241 312" xml:space="preserve">
<path fill="#FFFFFF" opacity="1.000000" stroke="none" 
	d="
M153.000000,313.000000 
	C102.000000,313.000000 51.500000,313.000000 1.000000,313.000000 
	C1.000000,209.000000 1.000000,105.000000 1.000000,1.000000 
	C81.333336,1.000000 161.666672,1.000000 242.000000,1.000000 
	C242.000000,105.000000 242.000000,209.000000 242.000000,313.000000 
	C212.500000,313.000000 183.000000,313.000000 153.000000,313.000000 
M175.603180,100.425323 
	C173.508148,98.015617 171.704453,95.229019 169.227081,93.313881 
	C167.197052,91.744568 164.364914,91.212830 161.183228,90.024155 
	C159.666336,89.072754 157.665161,86.961166 156.711594,87.359215 
	C150.758926,89.844063 148.025208,85.898308 143.834854,82.913864 
	C139.843826,80.071381 133.820282,79.956993 128.622467,79.019348 
	C127.253181,78.772346 124.833549,79.479950 124.274956,80.502419 
	C122.462868,83.819275 119.766037,83.219040 116.994553,83.007645 
	C116.994553,83.007645 117.031776,83.003822 116.724243,82.367767 
	C111.102158,78.801163 109.276482,84.047447 106.488197,86.864822 
	C99.010635,83.693085 92.642838,89.038895 93.640053,98.259384 
	C85.932076,96.375404 78.213821,94.990303 76.930382,103.634766 
	C70.749657,107.029579 65.903831,109.575378 61.215187,112.383606 
	C60.457897,112.837173 60.074272,114.457275 60.071964,115.539337 
	C60.058475,121.862068 59.626495,128.259125 60.416836,134.494049 
	C62.651680,152.124512 65.137428,169.733505 68.025192,187.268478 
	C72.586899,214.967972 77.562958,242.599213 82.344681,270.262604 
	C82.849510,273.183136 84.036087,274.719818 87.429054,275.122009 
	C102.274826,276.881927 117.066589,279.091858 131.894348,281.011902 
	C138.389359,281.852966 144.892471,283.829285 151.441681,280.992889 
	C160.446335,277.093048 169.574646,273.471100 178.493881,269.389008 
	C180.040024,268.681396 181.582977,266.392426 181.824493,264.652985 
	C184.155365,247.865555 186.058762,231.018921 188.374207,214.229187 
	C191.778641,189.542831 195.471710,164.896362 198.908875,140.214371 
	C199.461761,136.244064 198.606369,131.953445 199.766983,128.237213 
	C200.495667,125.904030 202.817291,123.670746 200.490341,121.716942 
	C197.991425,119.618759 196.929306,114.722412 191.837097,116.458862 
	C191.227936,116.666580 189.666199,114.879608 188.936813,113.762093 
	C187.605301,111.722092 187.018066,108.985123 185.303192,107.454330 
	C182.488419,104.941734 179.021072,103.160233 175.603180,100.425323 
z"/>
<path fill="#F96CC6" opacity="1.000000" stroke="none" 
	d="
M116.996529,82.970383 
	C119.766037,83.219040 122.462868,83.819275 124.274956,80.502419 
	C124.833549,79.479950 127.253181,78.772346 128.622467,79.019348 
	C133.820282,79.956993 139.843826,80.071381 143.834854,82.913864 
	C148.025208,85.898308 150.758926,89.844063 156.711594,87.359215 
	C157.665161,86.961166 159.666336,89.072754 161.360596,90.343018 
	C161.020065,92.059807 160.502182,93.457733 159.650055,94.935646 
	C158.871323,95.693428 158.426834,96.371231 157.986343,97.445023 
	C158.048843,98.630157 158.107376,99.419312 158.371033,100.446823 
	C162.891815,106.571205 168.343338,108.111366 175.066116,105.407120 
	C174.826126,108.380669 174.535385,110.929054 174.141663,114.380173 
	C178.039658,114.648361 182.387314,114.947502 187.654282,115.309883 
	C186.943665,112.710999 186.533463,110.453453 186.299561,110.471573 
	C183.750610,110.669029 181.229263,111.222672 179.552322,111.525497 
	C179.938858,110.048431 181.213715,107.265366 180.671295,106.848831 
	C179.182999,105.705948 176.931259,105.557213 174.955597,104.656357 
	C174.922775,103.581856 174.916061,102.865967 175.008835,101.927231 
	C175.278244,101.413177 175.518433,101.201859 175.828903,101.070442 
	C179.021072,103.160233 182.488419,104.941734 185.303192,107.454330 
	C187.018066,108.985123 187.605301,111.722092 188.936813,113.762093 
	C189.666199,114.879608 191.227936,116.666580 191.837097,116.458862 
	C196.929306,114.722412 197.991425,119.618759 200.490341,121.716942 
	C202.817291,123.670746 200.495667,125.904030 199.766983,128.237213 
	C198.606369,131.953445 199.461761,136.244064 198.908875,140.214371 
	C195.471710,164.896362 191.778641,189.542831 188.374207,214.229187 
	C186.058762,231.018921 184.155365,247.865555 181.824493,264.652985 
	C181.582977,266.392426 180.040024,268.681396 178.493881,269.389008 
	C169.574646,273.471100 160.446335,277.093048 151.441681,280.992889 
	C144.892471,283.829285 138.389359,281.852966 131.894348,281.011902 
	C117.066589,279.091858 102.274826,276.881927 87.429054,275.122009 
	C84.036087,274.719818 82.849510,273.183136 82.344681,270.262604 
	C77.562958,242.599213 72.586899,214.967972 68.025192,187.268478 
	C65.137428,169.733505 62.651680,152.124512 60.416836,134.494049 
	C59.626495,128.259125 60.058475,121.862068 60.071964,115.539337 
	C60.074272,114.457275 60.457897,112.837173 61.215187,112.383606 
	C65.903831,109.575378 70.749657,107.029579 76.930382,103.634766 
	C78.213821,94.990303 85.932076,96.375404 93.640053,98.259384 
	C92.642838,89.038895 99.010635,83.693085 106.488197,86.864822 
	C109.276482,84.047447 111.102158,78.801163 116.480186,82.761154 
	C111.174385,82.435226 109.241783,85.439911 108.051605,89.952431 
	C111.654152,90.940292 114.962006,92.290855 118.357285,92.567169 
	C119.780159,92.682961 122.023468,90.801880 122.687393,89.296577 
	C123.124802,88.304832 121.409264,86.363510 120.590240,84.711166 
	C118.972626,86.750824 118.036377,87.931351 117.055923,89.064560 
	C117.011719,89.017227 116.917168,88.928696 116.928452,88.502411 
	C116.958664,86.374214 116.977592,84.672295 116.996529,82.970383 
M144.950516,89.946541 
	C144.950516,89.946541 144.821671,89.796257 144.874634,89.012260 
	C144.358200,87.468796 143.841766,85.925331 143.325317,84.381874 
	C141.900146,85.311279 139.194321,86.368858 139.272278,87.147842 
	C139.603973,90.462334 140.532410,93.792885 141.856735,96.851875 
	C142.059113,97.319359 145.717712,96.837379 147.345871,95.977112 
	C148.788452,95.214905 149.629868,93.314964 150.736679,91.917297 
	C148.850540,91.310783 146.964401,90.704262 144.950516,89.946541 
M153.957611,113.965263 
	C153.957611,113.965263 153.808136,113.822861 153.823502,113.031097 
	C154.013290,109.031822 152.588730,107.058960 148.189194,108.462547 
	C148.112793,110.093590 148.044876,111.543541 148.008606,112.317734 
	C146.315079,111.445412 144.598831,110.062119 142.737976,109.828033 
	C141.894913,109.721970 140.764862,111.897217 140.126785,112.624939 
	C143.228317,114.464844 145.379044,116.303986 147.860153,117.062897 
	C150.649536,117.916100 153.764496,118.105095 156.673035,117.848503 
	C157.294006,117.793724 157.636322,114.580208 158.107010,112.821884 
	C157.671738,112.645264 157.236465,112.468643 156.801193,112.292023 
	C155.900986,112.899422 155.000778,113.506821 153.957611,113.965263 
M102.303726,274.575256 
	C103.233505,273.904602 104.861900,273.323364 104.961365,272.546387 
	C105.253426,270.265167 105.055336,267.895386 104.842247,265.579315 
	C102.608971,241.305923 100.290108,217.040375 98.088341,192.764175 
	C96.605064,176.409836 95.297462,160.039627 93.855225,143.681442 
	C93.405266,138.577881 92.989288,133.454666 92.156769,128.406570 
	C91.446930,124.102333 87.901848,123.687279 84.424965,124.044991 
	C81.064491,124.390717 78.898003,126.282890 78.937065,129.922775 
	C78.974503,133.411606 78.859039,136.939056 79.324326,140.380096 
	C81.766861,158.443924 84.459770,176.473907 86.900223,194.537994 
	C90.317284,219.830902 93.663521,245.134155 96.827805,270.459503 
	C97.227020,273.654694 98.469048,274.465271 101.485443,274.036835 
	C101.485443,274.036835 101.719292,274.030548 102.303726,274.575256 
M125.931557,136.546478 
	C125.907776,133.717545 126.036453,130.877167 125.825241,128.062302 
	C125.490578,123.602379 120.631248,120.304054 115.562286,120.913025 
	C111.382988,121.415115 109.667381,124.261986 110.102127,129.313797 
	C110.841408,137.904236 111.442879,146.507477 112.014923,155.111130 
	C112.774605,166.536911 113.408310,177.971054 114.171127,189.396622 
	C115.762566,213.232986 117.390411,237.066986 119.033539,260.899872 
	C119.395729,266.153320 119.883797,271.398102 120.321129,276.735077 
	C123.579430,277.200531 126.436607,277.608643 129.955688,278.111328 
	C129.644043,274.139618 129.252060,270.892090 129.155685,267.635834 
	C128.452591,243.883835 127.752846,220.131485 127.163879,196.376480 
	C126.677597,176.763748 126.344528,157.147217 125.931557,136.546478 
M144.125061,265.493774 
	C143.825867,256.509979 143.371277,247.528214 143.254700,238.542053 
	C142.781586,202.071945 142.412567,165.600464 142.003555,129.129517 
	C141.988617,127.797089 142.089676,126.446594 141.909149,125.135857 
	C141.303055,120.734825 136.565857,118.177940 132.527710,120.041306 
	C128.689102,121.812592 127.562523,124.881134 127.724548,129.003250 
	C128.541687,149.792953 129.226151,170.588226 129.870193,191.384247 
	C130.679291,217.510239 131.383194,243.639465 132.194107,269.765411 
	C132.285049,272.695160 132.775726,275.612488 133.089447,278.616272 
	C136.947357,279.087555 140.300827,279.497192 144.149384,279.967316 
	C144.149384,275.090424 144.149384,270.790100 144.125061,265.493774 
M81.081100,175.335907 
	C79.594276,159.814194 78.157875,144.287186 76.522820,128.781097 
	C76.395058,127.569519 74.974152,125.644150 73.990013,125.535286 
	C71.234787,125.230507 67.718559,124.757980 65.778679,126.141212 
	C63.895176,127.484268 62.982201,130.995483 62.759090,133.648422 
	C62.500961,136.717697 63.397713,139.899857 63.902843,143.015213 
	C70.628433,184.494690 77.348869,225.975021 84.140312,267.443726 
	C85.132088,273.499542 87.514725,274.770844 93.851196,273.018921 
	C93.764397,272.070221 93.707771,271.087891 93.580498,270.114807 
	C91.727570,255.947662 89.877480,241.780106 88.001930,227.615936 
	C85.733673,210.485901 83.441956,193.358963 81.081100,175.335907 
M110.131393,165.305603 
	C109.426109,152.844284 108.760559,140.380493 107.989166,127.923256 
	C107.781738,124.573418 103.821358,121.485558 100.551514,122.390854 
	C97.224640,123.311943 93.834244,124.399307 94.537056,129.363953 
	C95.608505,136.932632 96.289017,144.560440 96.997215,152.175995 
	C98.475807,168.075790 99.795334,183.990509 101.305634,199.887177 
	C103.476166,222.733185 105.852272,245.560028 107.941498,268.413239 
	C108.655754,276.226105 108.381691,276.251160 117.519325,276.190216 
	C115.064850,239.516144 112.613213,202.884338 110.131393,165.305603 
M153.999893,142.500961 
	C154.000626,141.834427 154.001495,141.167908 154.002060,140.501373 
	C154.006348,135.504669 154.262711,130.490845 153.924591,125.517418 
	C153.705826,122.299988 151.591537,120.381439 148.080917,120.902588 
	C144.678162,121.407722 143.706955,123.436752 144.615524,126.666817 
	C144.923721,127.762497 144.866974,128.975525 144.883911,130.136292 
	C145.265015,156.271759 145.629272,182.407486 146.004929,208.543030 
	C146.320084,230.468048 146.641083,252.393005 146.976929,274.317719 
	C146.999146,275.768097 147.169632,277.216156 147.281693,278.815765 
	C151.616623,278.795898 152.943604,276.848419 152.972122,272.902649 
	C153.173004,245.096863 153.599472,217.292786 153.858185,189.487274 
	C154.000809,174.159271 153.957993,158.829529 153.999893,142.500961 
M161.976791,240.493561 
	C163.036514,204.534271 164.132736,168.575943 165.083374,132.613770 
	C165.155716,129.877563 164.588348,126.949471 163.534546,124.439659 
	C163.076523,123.348808 160.435059,122.337097 159.147827,122.674118 
	C157.928085,122.993477 156.442795,125.084084 156.368637,126.465233 
	C156.155670,130.431793 156.788376,134.435333 156.751099,138.421173 
	C156.553207,159.578247 156.271454,180.734650 155.979736,201.890732 
	C155.766144,217.380493 155.442520,232.868851 155.264420,248.358948 
	C155.160233,257.421295 155.245438,266.485809 155.245438,275.604340 
	C159.915848,275.213959 161.142654,273.012878 161.135086,268.949646 
	C161.118042,259.796631 161.651962,250.642593 161.976791,240.493561 
M164.966248,231.497437 
	C164.966248,244.878815 164.966248,258.260193 164.966248,273.286682 
	C166.447479,271.043365 167.830200,269.868469 167.985443,268.549103 
	C168.547256,263.774719 168.764526,258.954987 168.989349,254.146637 
	C169.734344,238.212219 170.247803,222.264862 171.179214,206.341736 
	C172.633224,181.484344 174.368332,156.643463 175.952637,131.793564 
	C176.176468,128.282852 175.220093,125.147919 171.098236,125.106865 
	C167.192825,125.067970 167.128784,128.194748 167.071030,131.217758 
	C166.813736,144.685135 166.406906,158.149582 166.122849,171.616547 
	C165.708817,191.243134 165.353745,210.870987 164.966248,231.497437 
M197.623398,135.616669 
	C197.028015,132.210571 196.208206,128.558731 191.834290,129.109802 
	C190.427338,129.287079 188.448471,132.069336 188.278488,133.810867 
	C186.650955,150.486679 185.370193,167.196152 183.959595,183.893402 
	C182.926117,196.126495 181.909912,208.361588 180.772537,220.585236 
	C179.348511,235.889496 177.808304,251.182938 176.318237,266.481049 
	C176.864166,266.705414 177.410110,266.929779 177.956055,267.154114 
	C178.637787,265.589783 179.728775,264.077942 179.937195,262.452911 
	C181.771530,248.150543 183.214096,233.795029 185.222488,219.518539 
	C189.124405,191.782104 193.317871,164.086716 197.623398,135.616669 
M186.109283,131.979309 
	C185.439240,128.856812 183.459641,127.194656 180.387268,128.012009 
	C179.332169,128.292694 178.090561,130.271057 178.027206,131.528885 
	C176.586990,160.124741 175.374405,188.732010 173.950562,217.328751 
	C173.214111,232.120071 172.134628,246.894150 171.258636,261.678894 
	C171.120239,264.014679 171.239258,266.365723 171.239258,268.709747 
	C171.688080,268.767944 172.136902,268.826141 172.585724,268.884338 
	C173.003891,267.599365 173.657684,266.339447 173.797699,265.024872 
	C174.290970,260.393768 174.573257,255.740738 174.997787,251.101730 
	C176.741074,232.052368 178.478897,213.002426 180.272781,193.957794 
	C182.191193,173.591461 184.170456,153.230881 186.109283,131.979309 
M89.963448,111.490364 
	C93.361443,112.300583 96.858391,112.918922 97.921028,108.339752 
	C98.889343,104.167091 97.340073,101.226067 92.587105,100.283722 
	C92.157951,101.820305 91.758408,103.250877 91.310242,104.855545 
	C90.675613,104.384689 90.249268,104.231621 90.218918,104.021385 
	C89.758781,100.834061 88.258438,98.014183 84.818199,99.403275 
	C82.713745,100.253021 79.972473,103.471169 80.233856,105.219490 
	C80.548950,107.327049 83.626587,109.156189 85.752586,110.787651 
	C86.528709,111.383240 88.005341,111.066010 89.963448,111.490364 
M70.902367,109.520142 
	C71.282997,111.382256 71.663628,113.244362 72.170212,115.722664 
	C71.127800,115.057953 70.760353,114.769783 70.349617,114.571121 
	C68.611275,113.730354 66.805313,112.213699 65.133194,112.344025 
	C64.053085,112.428207 62.250797,115.046249 62.402466,116.337242 
	C62.623535,118.219002 64.011093,121.099625 65.436646,121.464813 
	C68.303337,122.199203 72.265015,122.590622 74.401955,121.123650 
	C76.490250,119.690086 77.618446,115.817436 77.817261,112.922707 
	C78.095879,108.866211 75.613525,107.637505 70.902367,109.520142 
M82.479935,114.844315 
	C80.823509,116.861725 77.939117,118.424316 79.448029,121.404945 
	C83.646515,121.999062 87.521049,121.987206 90.980713,123.179344 
	C95.260521,124.654083 96.634590,121.529633 97.592934,119.212059 
	C98.910591,116.025543 96.394684,114.717484 93.484390,114.235672 
	C93.019363,116.167213 92.627754,117.793816 92.010536,120.357491 
	C89.200447,112.323570 88.304634,111.806717 82.479935,114.844315 
M158.819656,103.449188 
	C157.452560,103.172752 156.085480,102.896309 156.106735,102.900612 
	C155.061554,100.480698 154.379059,98.900490 153.696548,97.320282 
	C152.385452,98.189682 151.074341,99.059082 150.095947,99.707870 
	C148.367218,99.707870 145.468842,99.226791 145.246841,99.793724 
	C144.421631,101.901123 144.476685,104.353210 144.201218,106.675880 
	C144.613174,106.864799 145.025116,107.053726 145.437073,107.242653 
	C149.937180,103.790588 153.553268,105.366379 157.709305,110.222893 
	C158.430527,107.414894 158.868042,105.711441 158.819656,103.449188 
M113.469444,109.999962 
	C112.806183,110.220612 112.142921,110.441254 111.825089,110.546982 
	C111.989937,108.313744 112.136856,106.323334 112.283775,104.332924 
	C111.835136,104.317230 111.386490,104.301537 110.937851,104.285843 
	C109.637146,105.463783 108.336441,106.641724 107.035736,107.819656 
	C106.867874,105.004044 110.144409,102.028419 105.302750,101.291779 
	C104.090202,101.107307 101.577629,102.997025 101.357971,104.234428 
	C101.005867,106.217941 101.423447,109.688690 102.661835,110.335068 
	C105.640266,111.889671 109.249557,112.469757 112.670807,112.859161 
	C114.934395,113.116814 116.038902,111.825188 113.469444,109.999962 
M134.957443,108.456696 
	C132.763184,109.258247 130.399231,109.778267 128.435318,110.961983 
	C127.161316,111.729881 126.471115,113.466377 125.519325,114.768883 
	C127.156281,115.846382 128.706024,117.594437 130.453568,117.821739 
	C132.384460,118.072906 134.496582,116.930656 137.459412,116.150520 
	C136.829910,113.748306 136.207520,111.373276 134.957443,108.456696 
M104.100250,88.205742 
	C99.099937,86.664024 102.315704,91.251884 101.653381,92.000053 
	C99.405914,91.468643 97.736069,91.073807 96.066231,90.678986 
	C95.817268,92.313164 95.568306,93.947342 95.319344,95.581528 
	C95.962273,95.203072 96.605202,94.824615 97.248131,94.446159 
	C99.527924,95.636871 101.703941,97.185371 104.125381,97.887733 
	C105.643448,98.328079 107.676834,97.795334 109.168320,97.064850 
	C109.655594,96.826195 109.163147,94.587173 109.118759,93.262985 
	C105.054092,94.224670 106.296967,90.081734 104.100250,88.205742 
M103.909851,120.447273 
	C106.278305,121.023499 109.058403,123.700340 110.826805,120.316322 
	C111.641548,118.757210 110.533417,116.193275 110.154579,112.812363 
	C108.249718,114.888229 107.528625,115.674057 107.148018,116.088829 
	C105.777634,114.967583 104.247223,112.996330 103.498055,113.258392 
	C102.117294,113.741402 100.561020,115.421516 100.307480,116.824936 
	C100.141151,117.745575 102.134087,119.056313 103.909851,120.447273 
M159.345657,119.481453 
	C160.762924,119.881905 162.341354,120.881607 163.562592,120.553177 
	C165.831360,119.943031 168.102539,118.821404 169.929428,117.358963 
	C170.607101,116.816483 170.038956,114.717697 170.038956,112.414948 
	C167.958191,114.113960 166.898926,114.978889 166.547012,115.266235 
	C165.256912,113.602676 164.376099,111.325768 163.156403,111.126862 
	C160.448914,110.685333 160.251709,112.725975 160.577454,115.071564 
	C160.736984,116.220367 159.765305,117.526260 159.345657,119.481453 
M184.193146,125.293121 
	C185.078156,126.020477 185.878143,126.925438 186.881424,127.405800 
	C187.445419,127.675842 188.590012,127.490158 189.022888,127.058434 
	C189.433060,126.649323 189.429718,125.619873 189.303726,124.917892 
	C188.942032,122.902550 188.426086,120.914886 187.690933,117.687981 
	C186.612244,117.808716 184.587814,118.035309 182.563385,118.261902 
	C183.235596,119.750992 183.995331,121.209587 184.530640,122.746368 
	C184.708298,123.256378 184.309143,123.967308 184.193146,125.293121 
M116.754074,116.107918 
	C115.836960,115.687439 114.919838,115.266960 114.002724,114.846481 
	C113.635185,115.085945 113.267654,115.325401 112.900116,115.564865 
	C113.657082,116.641075 114.191238,118.290894 115.212189,118.687454 
	C118.457390,119.947952 122.571053,117.921997 122.847313,114.895729 
	C122.954475,113.721886 121.693420,111.557472 120.690704,111.307350 
	C117.448494,110.498627 116.906105,112.901108 116.754074,116.107918 
M179.228378,125.840660 
	C182.869080,123.125786 177.580673,120.756020 178.900345,118.111809 
	C178.919434,118.073570 178.466705,117.799850 178.205826,117.616058 
	C177.427048,118.328682 176.645676,119.043663 175.657990,119.947433 
	C175.160141,118.463036 174.789658,117.358421 174.222305,115.666786 
	C172.513123,118.073685 171.208893,119.910324 170.439774,120.993416 
	C173.217865,122.704117 175.858917,124.330437 179.228378,125.840660 
M122.740013,107.204155 
	C122.740013,106.209335 122.740013,105.214508 122.740013,104.044930 
	C120.404800,104.732025 118.711922,105.230125 116.868004,105.772675 
	C118.030678,103.689964 118.832443,102.253754 119.634209,100.817543 
	C118.421524,100.584900 116.294106,99.902687 116.150261,100.195366 
	C115.423965,101.673111 114.646194,103.510834 114.929611,105.027321 
	C115.779274,109.573700 118.607178,109.990311 122.740013,107.204155 
M191.740570,125.610123 
	C198.084244,127.775497 198.984909,127.366226 198.218979,122.564171 
	C197.356964,122.924538 196.515457,123.276337 196.353622,123.343987 
	C195.314590,121.726288 194.434784,120.356506 193.554993,118.986717 
	C192.707932,120.497864 191.810013,121.984207 191.051727,123.538666 
	C190.875626,123.899666 191.175461,124.492836 191.740570,125.610123 
M127.389832,106.510986 
	C131.418961,107.159271 135.525818,104.338287 137.750381,98.875366 
	C136.036591,99.174370 134.324585,98.983818 133.517242,99.748474 
	C132.672653,100.548401 132.697678,102.266487 132.310211,103.703201 
	C130.914200,102.731110 129.802734,101.957153 127.946075,100.664299 
	C127.608513,102.854919 127.378754,104.345993 127.389832,106.510986 
M130.811264,86.203117 
	C130.753281,84.605659 131.053421,82.858612 130.476669,81.477859 
	C130.213287,80.847351 127.666702,80.326851 127.119621,80.821846 
	C125.664482,82.138451 124.733124,84.033943 123.226372,86.235657 
	C126.458992,86.425644 128.357910,86.537247 130.811264,86.203117 
M131.873550,99.025871 
	C132.162994,98.439377 132.758698,97.810623 132.684677,97.274292 
	C132.459366,95.641754 132.067032,94.009865 131.479797,92.477310 
	C131.404175,92.279968 129.058365,92.552452 129.017899,92.806770 
	C128.759842,94.428619 128.586914,96.167305 128.946671,97.739189 
	C129.118378,98.489441 130.521576,98.957840 131.873550,99.025871 
M110.597420,98.646004 
	C110.579964,99.640701 110.562508,100.635399 110.545059,101.630096 
	C112.354591,99.918755 114.409050,98.379204 115.810287,96.381470 
	C116.184601,95.847809 114.561859,93.913383 113.289597,91.585953 
	C112.160744,94.752441 111.574738,96.396225 110.597420,98.646004 
M155.434494,89.104774 
	C154.689850,90.760918 153.945206,92.417061 153.200562,94.073204 
	C154.367340,94.194954 155.971985,94.860016 156.619827,94.337883 
	C158.668045,92.687119 158.663330,90.747704 155.434494,89.104774 
M138.245468,103.419762 
	C134.499557,105.897247 137.808136,107.130951 138.881378,109.233864 
	C141.845184,106.718719 144.384644,104.737343 138.245468,103.419762 
M122.805702,98.817108 
	C122.327560,98.852386 121.849419,98.887665 121.371269,98.922943 
	C121.540009,99.345726 121.708748,99.768509 121.877487,100.191292 
	C122.230194,99.928268 122.582901,99.665245 122.805702,98.817108 
z"/>
<path fill="#FD7BC6" opacity="1.000000" stroke="none" 
	d="
M175.716034,100.747879 
	C175.518433,101.201859 175.278244,101.413177 174.711090,101.724167 
	C172.063110,101.925308 169.812393,102.106667 167.108078,102.324585 
	C167.632370,101.675476 168.171768,101.295540 168.285248,100.815002 
	C168.678909,99.148239 168.924576,97.446526 169.226562,95.758110 
	C167.681137,96.123726 166.050781,96.289383 164.610001,96.901367 
	C162.393616,97.842812 160.307373,99.090637 158.165894,100.208466 
	C158.107376,99.419312 158.048843,98.630157 158.255035,97.353394 
	C159.007950,96.195740 159.496124,95.525703 159.984283,94.855667 
	C160.502182,93.457733 161.020065,92.059807 161.713150,90.441513 
	C164.364914,91.212830 167.197052,91.744568 169.227081,93.313881 
	C171.704453,95.229019 173.508148,98.015617 175.716034,100.747879 
z"/>
<path fill="#F2E3C9" opacity="1.000000" stroke="none" 
	d="
M125.937561,137.039429 
	C126.344528,157.147217 126.677597,176.763748 127.163879,196.376480 
	C127.752846,220.131485 128.452591,243.883835 129.155685,267.635834 
	C129.252060,270.892090 129.644043,274.139618 129.955688,278.111328 
	C126.436607,277.608643 123.579430,277.200531 120.321129,276.735077 
	C119.883797,271.398102 119.395729,266.153320 119.033539,260.899872 
	C117.390411,237.066986 115.762566,213.232986 114.171127,189.396622 
	C113.408310,177.971054 112.774605,166.536911 112.014923,155.111130 
	C111.442879,146.507477 110.841408,137.904236 110.102127,129.313797 
	C109.667381,124.261986 111.382988,121.415115 115.562286,120.913025 
	C120.631248,120.304054 125.490578,123.602379 125.825241,128.062302 
	C126.036453,130.877167 125.907776,133.717545 125.937561,137.039429 
z"/>
<path fill="#6118EA" opacity="1.000000" stroke="none" 
	d="
M144.137222,265.991760 
	C144.149384,270.790100 144.149384,275.090424 144.149384,279.967316 
	C140.300827,279.497192 136.947357,279.087555 133.089447,278.616272 
	C132.775726,275.612488 132.285049,272.695160 132.194107,269.765411 
	C131.383194,243.639465 130.679291,217.510239 129.870193,191.384247 
	C129.226151,170.588226 128.541687,149.792953 127.724548,129.003250 
	C127.562523,124.881134 128.689102,121.812592 132.527710,120.041306 
	C136.565857,118.177940 141.303055,120.734825 141.909149,125.135857 
	C142.089676,126.446594 141.988617,127.797089 142.003555,129.129517 
	C142.412567,165.600464 142.781586,202.071945 143.254700,238.542053 
	C143.371277,247.528214 143.825867,256.509979 144.137222,265.991760 
M135.937271,181.183365 
	C135.937271,168.781937 135.937271,156.380524 135.937271,143.979095 
	C135.439789,143.985107 134.942322,143.991119 134.444839,143.997131 
	C134.444839,156.757843 134.444839,169.518539 134.340118,183.163620 
	C134.340118,191.439194 134.340118,199.714767 134.340118,207.990326 
	C134.841003,207.984421 135.341888,207.978531 135.842773,207.972626 
	C135.842773,199.359177 135.842773,190.745728 135.937271,181.183365 
z"/>
<path fill="#641AEA" opacity="1.000000" stroke="none" 
	d="
M81.120743,175.783295 
	C83.441956,193.358963 85.733673,210.485901 88.001930,227.615936 
	C89.877480,241.780106 91.727570,255.947662 93.580498,270.114807 
	C93.707771,271.087891 93.764397,272.070221 93.851196,273.018921 
	C87.514725,274.770844 85.132088,273.499542 84.140312,267.443726 
	C77.348869,225.975021 70.628433,184.494690 63.902843,143.015213 
	C63.397713,139.899857 62.500961,136.717697 62.759090,133.648422 
	C62.982201,130.995483 63.895176,127.484268 65.778679,126.141212 
	C67.718559,124.757980 71.234787,125.230507 73.990013,125.535286 
	C74.974152,125.644150 76.395058,127.569519 76.522820,128.781097 
	C78.157875,144.287186 79.594276,159.814194 81.120743,175.783295 
M79.817383,209.988419 
	C79.097473,205.412796 78.377563,200.837158 77.657654,196.261536 
	C76.919449,196.423141 76.181236,196.584763 75.443031,196.746368 
	C76.753494,201.369141 78.063965,205.991913 79.817383,209.988419 
z"/>
<path fill="#6319EA" opacity="1.000000" stroke="none" 
	d="
M110.146484,165.779083 
	C112.613213,202.884338 115.064850,239.516144 117.519325,276.190216 
	C108.381691,276.251160 108.655754,276.226105 107.941498,268.413239 
	C105.852272,245.560028 103.476166,222.733185 101.305634,199.887177 
	C99.795334,183.990509 98.475807,168.075790 96.997215,152.175995 
	C96.289017,144.560440 95.608505,136.932632 94.537056,129.363953 
	C93.834244,124.399307 97.224640,123.311943 100.551514,122.390854 
	C103.821358,121.485558 107.781738,124.573418 107.989166,127.923256 
	C108.760559,140.380493 109.426109,152.844284 110.146484,165.779083 
z"/>
<path fill="#F2E2C9" opacity="1.000000" stroke="none" 
	d="
M101.253578,274.067810 
	C98.469048,274.465271 97.227020,273.654694 96.827805,270.459503 
	C93.663521,245.134155 90.317284,219.830902 86.900223,194.537994 
	C84.459770,176.473907 81.766861,158.443924 79.324326,140.380096 
	C78.859039,136.939056 78.974503,133.411606 78.937065,129.922775 
	C78.898003,126.282890 81.064491,124.390717 84.424965,124.044991 
	C87.901848,123.687279 91.446930,124.102333 92.156769,128.406570 
	C92.989288,133.454666 93.405266,138.577881 93.855225,143.681442 
	C95.297462,160.039627 96.605064,176.409836 98.088341,192.764175 
	C100.290108,217.040375 102.608971,241.305923 104.842247,265.579315 
	C105.055336,267.895386 105.253426,270.265167 104.961365,272.546387 
	C104.861900,273.323364 103.233505,273.904602 102.123070,273.856964 
	C101.407494,267.406647 100.872581,261.674622 100.337662,255.942581 
	C99.658104,256.041840 98.978546,256.141113 98.298996,256.240387 
	C99.283859,262.182861 100.268715,268.125336 101.253578,274.067810 
M87.600243,162.496185 
	C87.740402,166.407944 87.669907,170.341309 88.068352,174.226578 
	C88.723991,180.619644 89.683304,186.981567 90.514595,193.356613 
	C91.160324,193.273254 91.806053,193.189880 92.451775,193.106522 
	C91.092766,182.917908 89.733757,172.729309 87.600243,162.496185 
z"/>
<path fill="#F2E2C9" opacity="1.000000" stroke="none" 
	d="
M153.999329,143.000763 
	C153.957993,158.829529 154.000809,174.159271 153.858185,189.487274 
	C153.599472,217.292786 153.173004,245.096863 152.972122,272.902649 
	C152.943604,276.848419 151.616623,278.795898 147.281693,278.815765 
	C147.169632,277.216156 146.999146,275.768097 146.976929,274.317719 
	C146.641083,252.393005 146.320084,230.468048 146.004929,208.543030 
	C145.629272,182.407486 145.265015,156.271759 144.883911,130.136292 
	C144.866974,128.975525 144.923721,127.762497 144.615524,126.666817 
	C143.706955,123.436752 144.678162,121.407722 148.080917,120.902588 
	C151.591537,120.381439 153.705826,122.299988 153.924591,125.517418 
	C154.262711,130.490845 154.006348,135.504669 154.002060,140.501373 
	C154.001495,141.167908 154.000626,141.834427 153.999329,143.000763 
M148.992767,245.821198 
	C149.140015,248.024139 149.287262,250.227066 149.434509,252.430008 
	C149.900101,252.398239 150.365707,252.366486 150.831299,252.334717 
	C150.831299,249.845001 150.831299,247.355286 150.864761,243.958862 
	C150.864761,234.592117 150.864761,225.225372 150.864761,215.858627 
	C150.264648,215.864090 149.664536,215.869568 149.064423,215.875046 
	C149.064423,225.564056 149.064423,235.253052 148.992767,245.821198 
M147.993973,147.734070 
	C147.989746,153.884338 147.983902,160.034607 147.981720,166.184875 
	C147.979614,172.134735 147.981277,178.084595 147.981277,184.034454 
	C148.376083,184.016174 148.770905,183.997894 149.165710,183.979614 
	C149.165710,169.963531 149.165710,155.947449 149.165710,141.931381 
	C148.775696,141.934235 148.385666,141.937073 147.995651,141.939926 
	C147.995651,143.565948 147.995651,145.191956 147.993973,147.734070 
z"/>
<path fill="#651AE9" opacity="1.000000" stroke="none" 
	d="
M161.969238,240.991272 
	C161.651962,250.642593 161.118042,259.796631 161.135086,268.949646 
	C161.142654,273.012878 159.915848,275.213959 155.245438,275.604340 
	C155.245438,266.485809 155.160233,257.421295 155.264420,248.358948 
	C155.442520,232.868851 155.766144,217.380493 155.979736,201.890732 
	C156.271454,180.734650 156.553207,159.578247 156.751099,138.421173 
	C156.788376,134.435333 156.155670,130.431793 156.368637,126.465233 
	C156.442795,125.084084 157.928085,122.993477 159.147827,122.674118 
	C160.435059,122.337097 163.076523,123.348808 163.534546,124.439659 
	C164.588348,126.949471 165.155716,129.877563 165.083374,132.613770 
	C164.132736,168.575943 163.036514,204.534271 161.969238,240.991272 
M160.014267,209.108429 
	C160.014267,202.303574 160.014267,195.498718 160.014267,188.693863 
	C159.512314,188.705414 159.010345,188.716980 158.508392,188.728531 
	C158.508392,196.637543 158.508392,204.546555 158.508392,212.455566 
	C158.821884,212.501862 159.135361,212.548157 159.448853,212.594452 
	C159.638336,211.730652 159.827820,210.866867 160.014267,209.108429 
z"/>
<path fill="#F3E0C9" opacity="1.000000" stroke="none" 
	d="
M164.969910,230.997864 
	C165.353745,210.870987 165.708817,191.243134 166.122849,171.616547 
	C166.406906,158.149582 166.813736,144.685135 167.071030,131.217758 
	C167.128784,128.194748 167.192825,125.067970 171.098236,125.106865 
	C175.220093,125.147919 176.176468,128.282852 175.952637,131.793564 
	C174.368332,156.643463 172.633224,181.484344 171.179214,206.341736 
	C170.247803,222.264862 169.734344,238.212219 168.989349,254.146637 
	C168.764526,258.954987 168.547256,263.774719 167.985443,268.549103 
	C167.830200,269.868469 166.447479,271.043365 164.966248,273.286682 
	C164.966248,258.260193 164.966248,244.878815 164.969910,230.997864 
M171.063019,157.728439 
	C171.421783,152.744980 171.780548,147.761505 172.139313,142.778046 
	C171.390198,142.762497 170.641068,142.746933 169.891937,142.731384 
	C169.891937,152.262650 169.891937,161.793900 169.891937,171.325165 
	C170.277374,171.331512 170.662811,171.337875 171.048248,171.344223 
	C171.048248,167.122559 171.048248,162.900909 171.063019,157.728439 
z"/>
<path fill="#F3DFC9" opacity="1.000000" stroke="none" 
	d="
M197.506989,135.995483 
	C193.317871,164.086716 189.124405,191.782104 185.222488,219.518539 
	C183.214096,233.795029 181.771530,248.150543 179.937195,262.452911 
	C179.728775,264.077942 178.637787,265.589783 177.956055,267.154114 
	C177.410110,266.929779 176.864166,266.705414 176.318237,266.481049 
	C177.808304,251.182938 179.348511,235.889496 180.772537,220.585236 
	C181.909912,208.361588 182.926117,196.126495 183.959595,183.893402 
	C185.370193,167.196152 186.650955,150.486679 188.278488,133.810867 
	C188.448471,132.069336 190.427338,129.287079 191.834290,129.109802 
	C196.208206,128.558731 197.028015,132.210571 197.506989,135.995483 
z"/>
<path fill="#661BE9" opacity="1.000000" stroke="none" 
	d="
M186.116211,132.423553 
	C184.170456,153.230881 182.191193,173.591461 180.272781,193.957794 
	C178.478897,213.002426 176.741074,232.052368 174.997787,251.101730 
	C174.573257,255.740738 174.290970,260.393768 173.797699,265.024872 
	C173.657684,266.339447 173.003891,267.599365 172.585724,268.884338 
	C172.136902,268.826141 171.688080,268.767944 171.239258,268.709747 
	C171.239258,266.365723 171.120239,264.014679 171.258636,261.678894 
	C172.134628,246.894150 173.214111,232.120071 173.950562,217.328751 
	C175.374405,188.732010 176.586990,160.124741 178.027206,131.528885 
	C178.090561,130.271057 179.332169,128.292694 180.387268,128.012009 
	C183.459641,127.194656 185.439240,128.856812 186.116211,132.423553 
z"/>
<path fill="#F2E2C9" opacity="1.000000" stroke="none" 
	d="
M89.562920,111.327789 
	C88.005341,111.066010 86.528709,111.383240 85.752586,110.787651 
	C83.626587,109.156189 80.548950,107.327049 80.233856,105.219490 
	C79.972473,103.471169 82.713745,100.253021 84.818199,99.403275 
	C88.258438,98.014183 89.758781,100.834061 90.218918,104.021385 
	C90.249268,104.231621 90.675613,104.384689 91.310242,104.855545 
	C91.758408,103.250877 92.157951,101.820305 92.587105,100.283722 
	C97.340073,101.226067 98.889343,104.167091 97.921028,108.339752 
	C96.858391,112.918922 93.361443,112.300583 89.562920,111.327789 
z"/>
<path fill="#F2E3C9" opacity="1.000000" stroke="none" 
	d="
M71.079025,109.164261 
	C75.613525,107.637505 78.095879,108.866211 77.817261,112.922707 
	C77.618446,115.817436 76.490250,119.690086 74.401955,121.123650 
	C72.265015,122.590622 68.303337,122.199203 65.436646,121.464813 
	C64.011093,121.099625 62.623535,118.219002 62.402466,116.337242 
	C62.250797,115.046249 64.053085,112.428207 65.133194,112.344025 
	C66.805313,112.213699 68.611275,113.730354 70.349617,114.571121 
	C70.760353,114.769783 71.127800,115.057953 72.170212,115.722664 
	C71.663628,113.244362 71.282997,111.382256 71.079025,109.164261 
z"/>
<path fill="#F3E0C9" opacity="1.000000" stroke="none" 
	d="
M82.764252,114.581772 
	C88.304634,111.806717 89.200447,112.323570 92.010536,120.357491 
	C92.627754,117.793816 93.019363,116.167213 93.484390,114.235672 
	C96.394684,114.717484 98.910591,116.025543 97.592934,119.212059 
	C96.634590,121.529633 95.260521,124.654083 90.980713,123.179344 
	C87.521049,121.987206 83.646515,121.999062 79.448029,121.404945 
	C77.939117,118.424316 80.823509,116.861725 82.764252,114.581772 
z"/>
<path fill="#F3DEC9" opacity="1.000000" stroke="none" 
	d="
M154.100571,114.114220 
	C155.000778,113.506821 155.900986,112.899422 156.801193,112.292023 
	C157.236465,112.468643 157.671738,112.645264 158.107010,112.821884 
	C157.636322,114.580208 157.294006,117.793724 156.673035,117.848503 
	C153.764496,118.105095 150.649536,117.916100 147.860153,117.062897 
	C145.379044,116.303986 143.228317,114.464844 140.126785,112.624939 
	C140.764862,111.897217 141.894913,109.721970 142.737976,109.828033 
	C144.598831,110.062119 146.315079,111.445412 148.008606,112.317734 
	C148.044876,111.543541 148.112793,110.093590 148.189194,108.462547 
	C152.588730,107.058960 154.013290,109.031822 153.661926,113.522980 
	C153.700409,114.047981 153.900497,114.081100 154.100571,114.114220 
z"/>
<path fill="#F3DFC9" opacity="1.000000" stroke="none" 
	d="
M159.062622,103.728584 
	C158.868042,105.711441 158.430527,107.414894 157.709305,110.222893 
	C153.553268,105.366379 149.937180,103.790588 145.437073,107.242653 
	C145.025116,107.053726 144.613174,106.864799 144.201218,106.675880 
	C144.476685,104.353210 144.421631,101.901123 145.246841,99.793724 
	C145.468842,99.226791 148.367218,99.707870 150.095947,99.707870 
	C151.074341,99.059082 152.385452,98.189682 153.696548,97.320282 
	C154.379059,98.900490 155.061554,100.480698 156.106735,102.900612 
	C156.085480,102.896309 157.452560,103.172752 159.062622,103.728584 
z"/>
<path fill="#F3DEC9" opacity="1.000000" stroke="none" 
	d="
M158.371033,100.446823 
	C160.307373,99.090637 162.393616,97.842812 164.610001,96.901367 
	C166.050781,96.289383 167.681137,96.123726 169.226562,95.758110 
	C168.924576,97.446526 168.678909,99.148239 168.285248,100.815002 
	C168.171768,101.295540 167.632370,101.675476 167.108078,102.324585 
	C169.812393,102.106667 172.063110,101.925308 174.611603,101.947014 
	C174.916061,102.865967 174.922775,103.581856 174.964630,104.648743 
	C174.999771,104.999756 175.015381,104.981964 175.015381,104.981964 
	C168.343338,108.111366 162.891815,106.571205 158.371033,100.446823 
z"/>
<path fill="#F3E0C9" opacity="1.000000" stroke="none" 
	d="
M145.078262,90.097748 
	C146.964401,90.704262 148.850540,91.310783 150.736664,91.917297 
	C149.629868,93.314964 148.788452,95.214905 147.345871,95.977112 
	C145.717712,96.837379 142.059113,97.319359 141.856735,96.851875 
	C140.532410,93.792885 139.603973,90.462334 139.272278,87.147842 
	C139.194321,86.368858 141.900146,85.311279 143.325317,84.381874 
	C143.841766,85.925331 144.358200,87.468796 144.617889,89.447395 
	C144.115540,90.059334 143.869934,90.236137 143.624329,90.412949 
	C144.108978,90.307877 144.593613,90.202812 145.078262,90.097748 
z"/>
<path fill="#F3E1C9" opacity="1.000000" stroke="none" 
	d="
M113.754684,109.848206 
	C116.038902,111.825188 114.934395,113.116814 112.670807,112.859161 
	C109.249557,112.469757 105.640266,111.889671 102.661835,110.335068 
	C101.423447,109.688690 101.005867,106.217941 101.357971,104.234428 
	C101.577629,102.997025 104.090202,101.107307 105.302750,101.291779 
	C110.144409,102.028419 106.867874,105.004044 107.035736,107.819656 
	C108.336441,106.641724 109.637146,105.463783 110.937851,104.285843 
	C111.386490,104.301537 111.835136,104.317230 112.283775,104.332924 
	C112.136856,106.323334 111.989937,108.313744 111.825089,110.546982 
	C112.142921,110.441254 112.806183,110.220612 113.754684,109.848206 
z"/>
<path fill="#F3E1C9" opacity="1.000000" stroke="none" 
	d="
M117.100128,89.111885 
	C118.036377,87.931351 118.972626,86.750824 120.590240,84.711166 
	C121.409264,86.363510 123.124802,88.304832 122.687393,89.296577 
	C122.023468,90.801880 119.780159,92.682961 118.357285,92.567169 
	C114.962006,92.290855 111.654152,90.940292 108.051605,89.952431 
	C109.241783,85.439911 111.174385,82.435226 116.633957,83.079178 
	C117.031776,83.003822 116.994553,83.007645 116.995544,82.989014 
	C116.977592,84.672295 116.958664,86.374214 116.776245,88.576851 
	C116.697426,89.210251 116.782074,89.342918 116.866730,89.475594 
	C116.944527,89.354355 117.022324,89.233116 117.100128,89.111885 
z"/>
<path fill="#F3DFC9" opacity="1.000000" stroke="none" 
	d="
M135.271301,108.727478 
	C136.207520,111.373276 136.829910,113.748306 137.459412,116.150520 
	C134.496582,116.930656 132.384460,118.072906 130.453568,117.821739 
	C128.706024,117.594437 127.156281,115.846382 125.519325,114.768875 
	C126.471115,113.466377 127.161316,111.729881 128.435318,110.961983 
	C130.399231,109.778267 132.763184,109.258247 135.271301,108.727478 
z"/>
<path fill="#F3E0C9" opacity="1.000000" stroke="none" 
	d="
M104.400497,88.437546 
	C106.296967,90.081734 105.054092,94.224670 109.118759,93.262985 
	C109.163147,94.587173 109.655594,96.826195 109.168320,97.064850 
	C107.676834,97.795334 105.643448,98.328079 104.125381,97.887733 
	C101.703941,97.185371 99.527924,95.636871 97.248131,94.446159 
	C96.605202,94.824615 95.962273,95.203072 95.319344,95.581528 
	C95.568306,93.947342 95.817268,92.313164 96.066231,90.678986 
	C97.736069,91.073807 99.405914,91.468643 101.653381,92.000053 
	C102.315704,91.251884 99.099937,86.664024 104.400497,88.437546 
z"/>
<path fill="#F3DEC9" opacity="1.000000" stroke="none" 
	d="
M174.990738,105.007370 
	C176.931259,105.557213 179.182999,105.705948 180.671295,106.848831 
	C181.213715,107.265366 179.938858,110.048431 179.552322,111.525497 
	C181.229263,111.222672 183.750610,110.669029 186.299561,110.471573 
	C186.533463,110.453453 186.943665,112.710999 187.654282,115.309883 
	C182.387314,114.947502 178.039658,114.648361 174.141663,114.380173 
	C174.535385,110.929054 174.826126,108.380669 175.066116,105.407120 
	C175.015381,104.981964 174.999771,104.999756 174.990738,105.007370 
z"/>
<path fill="#F3DFC9" opacity="1.000000" stroke="none" 
	d="
M103.534927,120.319809 
	C102.134087,119.056313 100.141151,117.745575 100.307480,116.824936 
	C100.561020,115.421516 102.117294,113.741402 103.498055,113.258392 
	C104.247223,112.996330 105.777634,114.967583 107.148018,116.088829 
	C107.528625,115.674057 108.249718,114.888229 110.154579,112.812363 
	C110.533417,116.193275 111.641548,118.757210 110.826805,120.316322 
	C109.058403,123.700340 106.278305,121.023499 103.534927,120.319809 
z"/>
<path fill="#F3DCC9" opacity="1.000000" stroke="none" 
	d="
M159.325623,119.121254 
	C159.765305,117.526260 160.736984,116.220367 160.577454,115.071564 
	C160.251709,112.725975 160.448914,110.685333 163.156403,111.126862 
	C164.376099,111.325768 165.256912,113.602676 166.547012,115.266235 
	C166.898926,114.978889 167.958191,114.113960 170.038956,112.414948 
	C170.038956,114.717697 170.607101,116.816483 169.929428,117.358963 
	C168.102539,118.821404 165.831360,119.943031 163.562592,120.553177 
	C162.341354,120.881607 160.762924,119.881905 159.325623,119.121254 
z"/>
<path fill="#F3D9C8" opacity="1.000000" stroke="none" 
	d="
M184.183441,124.939751 
	C184.309143,123.967308 184.708298,123.256378 184.530640,122.746368 
	C183.995331,121.209587 183.235596,119.750992 182.563385,118.261902 
	C184.587814,118.035309 186.612244,117.808716 187.690933,117.687981 
	C188.426086,120.914886 188.942032,122.902550 189.303726,124.917892 
	C189.429718,125.619873 189.433060,126.649323 189.022888,127.058434 
	C188.590012,127.490158 187.445419,127.675842 186.881424,127.405800 
	C185.878143,126.925438 185.078156,126.020477 184.183441,124.939751 
z"/>
<path fill="#F3DBC8" opacity="1.000000" stroke="none" 
	d="
M116.835480,115.790131 
	C116.906105,112.901108 117.448494,110.498627 120.690704,111.307350 
	C121.693420,111.557472 122.954475,113.721886 122.847313,114.895729 
	C122.571053,117.921997 118.457390,119.947952 115.212189,118.687454 
	C114.191238,118.290894 113.657082,116.641075 112.900116,115.564865 
	C113.267654,115.325401 113.635185,115.085945 114.002724,114.846481 
	C114.919838,115.266960 115.836960,115.687439 116.835480,115.790131 
z"/>
<path fill="#F3E0C9" opacity="1.000000" stroke="none" 
	d="
M178.864182,125.898712 
	C175.858917,124.330437 173.217865,122.704117 170.439774,120.993416 
	C171.208893,119.910324 172.513123,118.073685 174.222305,115.666786 
	C174.789658,117.358421 175.160141,118.463036 175.657990,119.947433 
	C176.645676,119.043663 177.427048,118.328682 178.205826,117.616058 
	C178.466705,117.799850 178.919434,118.073570 178.900345,118.111809 
	C177.580673,120.756020 182.869080,123.125786 178.864182,125.898712 
z"/>
<path fill="#F3DDC9" opacity="1.000000" stroke="none" 
	d="
M122.484070,107.494164 
	C118.607178,109.990311 115.779274,109.573700 114.929611,105.027321 
	C114.646194,103.510834 115.423965,101.673111 116.150261,100.195366 
	C116.294106,99.902687 118.421524,100.584900 119.634209,100.817535 
	C118.832443,102.253754 118.030678,103.689964 116.868004,105.772675 
	C118.711922,105.230125 120.404800,104.732025 122.740013,104.044930 
	C122.740013,105.214508 122.740013,106.209335 122.484070,107.494164 
z"/>
<path fill="#F3DCC9" opacity="1.000000" stroke="none" 
	d="
M191.498444,125.294647 
	C191.175461,124.492836 190.875626,123.899666 191.051727,123.538666 
	C191.810013,121.984207 192.707932,120.497864 193.554993,118.986717 
	C194.434784,120.356506 195.314590,121.726288 196.353622,123.343987 
	C196.515457,123.276337 197.356964,122.924538 198.218979,122.564171 
	C198.984909,127.366226 198.084244,127.775497 191.498444,125.294647 
z"/>
<path fill="#F3DAC8" opacity="1.000000" stroke="none" 
	d="
M127.269409,106.174026 
	C127.378754,104.345993 127.608513,102.854919 127.946075,100.664299 
	C129.802734,101.957153 130.914200,102.731110 132.310211,103.703201 
	C132.697678,102.266487 132.672653,100.548401 133.517242,99.748474 
	C134.324585,98.983818 136.036591,99.174370 137.750381,98.875366 
	C135.525818,104.338287 131.418961,107.159271 127.269409,106.174026 
z"/>
<path fill="#F3D8C8" opacity="1.000000" stroke="none" 
	d="
M130.534042,86.425980 
	C128.357910,86.537247 126.458992,86.425644 123.226372,86.235657 
	C124.733124,84.033943 125.664482,82.138451 127.119621,80.821846 
	C127.666702,80.326851 130.213287,80.847351 130.476669,81.477859 
	C131.053421,82.858612 130.753281,84.605659 130.534042,86.425980 
z"/>
<path fill="#FE76C5" opacity="1.000000" stroke="none" 
	d="
M101.369507,274.052307 
	C100.268715,268.125336 99.283859,262.182861 98.298996,256.240387 
	C98.978546,256.141113 99.658104,256.041840 100.337662,255.942581 
	C100.872581,261.674622 101.407494,267.406647 101.830856,273.584595 
	C101.719292,274.030548 101.485443,274.036835 101.369507,274.052307 
z"/>
<path fill="#F3DEC9" opacity="1.000000" stroke="none" 
	d="
M131.620255,99.289886 
	C130.521576,98.957840 129.118378,98.489441 128.946671,97.739189 
	C128.586914,96.167305 128.759842,94.428619 129.017899,92.806770 
	C129.058365,92.552452 131.404175,92.279968 131.479797,92.477310 
	C132.067032,94.009865 132.459366,95.641754 132.684677,97.274292 
	C132.758698,97.810623 132.162994,98.439377 131.620255,99.289886 
z"/>
<path fill="#F3DDC9" opacity="1.000000" stroke="none" 
	d="
M110.793076,98.343002 
	C111.574738,96.396225 112.160744,94.752441 113.289597,91.585953 
	C114.561859,93.913383 116.184601,95.847809 115.810287,96.381470 
	C114.409050,98.379204 112.354591,99.918755 110.545059,101.630096 
	C110.562508,100.635399 110.579964,99.640701 110.793076,98.343002 
z"/>
<path fill="#F3D9C8" opacity="1.000000" stroke="none" 
	d="
M155.827957,89.160706 
	C158.663330,90.747704 158.668045,92.687119 156.619827,94.337883 
	C155.971985,94.860016 154.367340,94.194954 153.200562,94.073204 
	C153.945206,92.417061 154.689850,90.760918 155.827957,89.160706 
z"/>
<path fill="#F3DDC9" opacity="1.000000" stroke="none" 
	d="
M138.572021,103.289703 
	C144.384644,104.737343 141.845184,106.718719 138.881378,109.233864 
	C137.808136,107.130951 134.499557,105.897247 138.572021,103.289703 
z"/>
<path fill="#F4CDC8" opacity="1.000000" stroke="none" 
	d="
M122.870651,99.109665 
	C122.582901,99.665245 122.230194,99.928268 121.877487,100.191292 
	C121.708748,99.768509 121.540009,99.345726 121.371277,98.922943 
	C121.849419,98.887665 122.327560,98.852386 122.870651,99.109665 
z"/>
<path fill="#F3D9C8" opacity="1.000000" stroke="none" 
	d="
M159.650055,94.935646 
	C159.496124,95.525703 159.007950,96.195740 158.251068,96.957405 
	C158.426834,96.371231 158.871323,95.693428 159.650055,94.935646 
z"/>
<path fill="#AA3CD9" opacity="1.000000" stroke="none" 
	d="
M134.444839,182.279251 
	C134.444839,169.518539 134.444839,156.757843 134.444839,143.997131 
	C134.942322,143.991119 135.439789,143.985107 135.937271,143.979095 
	C135.937271,156.380524 135.937271,168.781937 135.653870,181.649597 
	C135.058136,182.148804 134.749588,182.203278 134.444839,182.279251 
z"/>
<path fill="#FB64C5" opacity="1.000000" stroke="none" 
	d="
M134.392487,182.721436 
	C134.749588,182.203278 135.058136,182.148804 135.606628,182.124054 
	C135.842773,190.745728 135.842773,199.359177 135.842773,207.972626 
	C135.341888,207.978531 134.841003,207.984421 134.340118,207.990326 
	C134.340118,199.714767 134.340118,191.439194 134.392487,182.721436 
z"/>
<path fill="#DD55CC" opacity="1.000000" stroke="none" 
	d="
M79.595901,210.301544 
	C78.063965,205.991913 76.753494,201.369141 75.443031,196.746368 
	C76.181236,196.584763 76.919449,196.423141 77.657654,196.261536 
	C78.377563,200.837158 79.097473,205.412796 79.595901,210.301544 
z"/>
<path fill="#FD7FC5" opacity="1.000000" stroke="none" 
	d="
M87.987495,162.518448 
	C89.733757,172.729309 91.092766,182.917908 92.451775,193.106522 
	C91.806053,193.189880 91.160324,193.273254 90.514595,193.356613 
	C89.683304,186.981567 88.723991,180.619644 88.068352,174.226578 
	C87.669907,170.341309 87.740402,166.407944 87.987495,162.518448 
z"/>
<path fill="#FE74C4" opacity="1.000000" stroke="none" 
	d="
M147.994812,147.276016 
	C147.995651,145.191956 147.995651,143.565948 147.995651,141.939926 
	C148.385666,141.937073 148.775696,141.934235 149.165710,141.931381 
	C149.165710,155.947449 149.165710,169.963531 149.165710,183.979614 
	C148.770905,183.997894 148.376083,184.016174 147.981277,184.034454 
	C147.981277,178.084595 147.979614,172.134735 147.981720,166.184875 
	C147.983902,160.034607 147.989746,153.884338 147.994812,147.276016 
z"/>
<path fill="#FF6AC4" opacity="1.000000" stroke="none" 
	d="
M149.064423,244.942062 
	C149.064423,235.253052 149.064423,225.564056 149.064423,215.875046 
	C149.664536,215.869568 150.264648,215.864090 150.864761,215.858627 
	C150.864761,225.225372 150.864761,234.592117 150.556244,244.454559 
	C149.853287,244.947510 149.458862,244.944778 149.064423,244.942062 
z"/>
<path fill="#F8A7C6" opacity="1.000000" stroke="none" 
	d="
M149.028595,245.381622 
	C149.458862,244.944778 149.853287,244.947510 150.539520,244.907898 
	C150.831299,247.355286 150.831299,249.845001 150.831299,252.334717 
	C150.365707,252.366486 149.900101,252.398239 149.434509,252.430008 
	C149.287262,250.227066 149.140015,248.024139 149.028595,245.381622 
z"/>
<path fill="#C74AD1" opacity="1.000000" stroke="none" 
	d="
M160.015778,209.555756 
	C159.827820,210.866867 159.638336,211.730652 159.448853,212.594452 
	C159.135361,212.548157 158.821884,212.501862 158.508392,212.455566 
	C158.508392,204.546555 158.508392,196.637543 158.508392,188.728531 
	C159.010345,188.716980 159.512314,188.705414 160.014267,188.693863 
	C160.014267,195.498718 160.014267,202.303574 160.015778,209.555756 
z"/>
<path fill="#FB8AC5" opacity="1.000000" stroke="none" 
	d="
M171.055634,158.203842 
	C171.048248,162.900909 171.048248,167.122559 171.048248,171.344223 
	C170.662811,171.337875 170.277374,171.331512 169.891937,171.325165 
	C169.891937,161.793900 169.891937,152.262650 169.891937,142.731384 
	C170.641068,142.746933 171.390198,142.762497 172.139313,142.778046 
	C171.780548,147.761505 171.421783,152.744980 171.055634,158.203842 
z"/>
<path fill="#F96CC6" opacity="1.000000" stroke="none" 
	d="
M154.029083,114.039742 
	C153.900497,114.081100 153.700409,114.047981 153.654236,113.918861 
	C153.808136,113.822861 153.957611,113.965263 154.029083,114.039742 
z"/>
<path fill="#F96CC6" opacity="1.000000" stroke="none" 
	d="
M145.014389,90.022141 
	C144.593613,90.202812 144.108978,90.307877 143.624329,90.412949 
	C143.869934,90.236137 144.115540,90.059334 144.591400,89.839394 
	C144.821671,89.796257 144.950516,89.946541 145.014389,90.022141 
z"/>
<path fill="#F96CC6" opacity="1.000000" stroke="none" 
	d="
M117.055923,89.064560 
	C117.022324,89.233116 116.944527,89.354355 116.866730,89.475594 
	C116.782074,89.342918 116.697426,89.210251 116.764969,89.003136 
	C116.917168,88.928696 117.011719,89.017227 117.055923,89.064560 
z"/>
</svg>