<svg version="1.1" id="Layer_1" xmlns="http://www.w3.org/2000/svg" xmlns:xlink="http://www.w3.org/1999/xlink" x="0px" y="0px"
	 width="100%" viewBox="0 0 428 119" enable-background="new 0 0 428 119" xml:space="preserve">
<path fill="#FFFCFD" opacity="1.000000" stroke="none" 
	d="
M273.000000,120.000000 
	C182.369965,120.000000 91.739937,120.000000 1.054952,120.000000 
	C1.054952,80.386063 1.054952,40.772026 1.054952,1.078994 
	C143.556320,1.078994 286.112701,1.078994 428.834534,1.078994 
	C428.834534,40.666206 428.834534,80.332993 428.834534,120.000000 
	C381.231903,120.000000 333.584625,120.000000 285.296936,119.697998 
	C275.893951,114.539436 275.445465,113.584610 278.515686,103.729401 
	C280.984711,95.804108 283.662506,87.943321 286.290314,80.068146 
	C290.281525,68.107101 294.733917,56.278042 298.152222,44.156536 
	C300.002380,37.595860 300.333771,30.429995 293.801270,25.463583 
	C286.473572,19.892612 278.904541,19.695030 271.027557,24.722017 
	C268.850616,26.111317 266.791992,27.685991 264.657471,29.190844 
	C255.719528,16.854403 245.882309,17.596600 235.693756,27.101402 
	C235.554245,24.195768 235.992188,21.890429 235.234390,20.087744 
	C233.947250,17.025846 230.069748,16.812151 226.780777,18.853186 
	C218.331696,24.096418 210.209900,30.151201 201.175674,34.087891 
	C192.042938,38.067509 186.945038,36.217350 185.890244,26.349861 
	C185.854919,26.019358 185.924728,25.515469 185.740692,25.387936 
	C183.771530,24.023258 181.761017,22.718237 179.761856,21.396851 
	C179.115982,23.079292 177.929306,24.758308 177.918610,26.444775 
	C177.874283,33.444080 182.753342,38.594685 191.434540,40.916901 
	C200.448822,43.328217 208.422379,40.075256 216.212677,36.060738 
	C218.264740,35.003258 220.308289,33.929272 222.692215,32.687630 
	C220.631516,47.630909 212.402954,58.527634 204.824585,69.862442 
	C200.251419,76.702438 196.350098,84.066132 192.867798,91.530807 
	C191.010406,95.512337 193.164551,98.851982 197.423950,100.580154 
	C203.613434,103.091423 208.467300,101.667000 211.254776,95.024010 
	C215.489426,84.932198 219.527023,74.672600 222.507690,64.160828 
	C226.405838,50.413410 235.189407,40.235432 244.934677,30.679918 
	C247.160187,28.497747 250.995529,27.957363 254.089935,26.661343 
	C254.879501,30.217373 256.856079,34.001339 256.225586,37.284683 
	C254.634796,45.569096 252.073257,53.692234 249.526291,61.761810 
	C246.023727,72.858887 242.239227,83.868866 238.435562,94.867767 
	C237.382660,97.912415 238.646683,99.137245 241.296890,99.959396 
	C243.667419,100.694794 245.682709,101.403320 246.766159,98.043167 
	C252.066010,81.606583 257.579437,65.238655 262.843781,48.790913 
	C265.562317,40.297245 270.877075,33.837929 278.329071,29.412579 
	C280.992920,27.830662 286.095978,26.666233 287.799866,28.075325 
	C290.017822,29.909504 290.021729,34.482014 290.829742,37.911125 
	C291.001953,38.642117 290.587280,39.538818 290.354614,40.333298 
	C288.908722,45.270458 287.575745,50.246311 285.949432,55.124004 
	C280.641510,71.043732 275.160919,86.905998 269.879364,102.834343 
	C267.824799,109.030457 268.361420,114.933075 273.000000,120.000000 
M331.417999,50.721878 
	C327.999664,48.050938 325.502533,49.042915 324.080353,52.861649 
	C312.549591,47.522316 307.551727,48.890827 300.416687,58.848682 
	C294.445282,67.182503 291.300323,76.590408 290.317963,86.640038 
	C289.866699,91.256416 290.455963,96.171501 295.104401,98.985023 
	C299.846985,101.855492 304.970520,102.346344 309.757050,99.322273 
	C312.241028,97.752945 314.019165,97.739426 316.545776,99.080490 
	C321.593536,101.759796 326.741882,102.939682 331.894135,98.789124 
	C332.732147,98.114044 334.995300,98.594170 336.289093,99.201790 
	C342.986450,102.347061 349.189484,102.182968 354.611633,96.748215 
	C356.705811,94.649162 358.060791,94.764534 360.408295,96.663551 
	C369.076172,103.675461 381.766998,103.028297 389.364075,94.796829 
	C393.237701,90.599724 396.042603,85.375298 399.008698,80.422440 
	C399.494232,79.611649 398.721344,77.341560 397.822205,76.535591 
	C394.763245,73.793518 392.257507,73.807030 390.318817,78.228027 
	C387.416565,84.846245 383.750427,91.137299 376.617065,94.049751 
	C372.958191,95.543610 368.643097,96.865372 365.680725,92.919113 
	C362.355286,88.489151 365.294952,80.721085 370.516968,78.815598 
	C377.876007,76.130333 385.182159,73.383316 390.430054,67.039131 
	C394.964203,61.557762 393.778107,54.853054 387.524536,51.664200 
	C381.104858,48.390656 375.523834,48.472816 370.781219,53.984093 
	C366.001770,59.538231 362.541870,66.261581 358.741089,72.614609 
	C355.011902,78.847992 351.807800,85.405800 347.881836,91.504906 
	C346.702515,93.337059 343.877350,94.109802 341.806183,95.367889 
	C341.372620,95.003944 340.939026,94.640007 340.505463,94.276070 
	C340.979919,91.398636 341.120880,88.415581 341.992401,85.663902 
	C344.446503,77.915215 347.514832,70.350624 349.728851,62.539932 
	C351.251709,57.167572 353.546265,53.930199 359.669922,55.009575 
	C360.625793,55.178062 361.732605,54.490337 362.769623,54.198536 
	C362.936310,53.746784 363.103027,53.295033 363.269745,52.843281 
	C360.621185,51.256500 357.972656,49.669720 355.015625,47.898117 
	C356.100525,44.992867 357.244904,41.889927 358.417542,38.797714 
	C359.915710,34.847218 356.839172,33.997826 354.351379,32.687332 
	C351.201569,31.028086 350.637360,33.507164 349.867981,35.491112 
	C348.846832,38.124218 347.731171,40.756073 347.081512,43.489563 
	C346.099060,47.623142 344.127716,49.768696 339.508026,49.205814 
	C338.003540,49.022503 336.316803,50.335453 334.060394,50.979145 
	C333.405243,50.973801 332.750092,50.968460 331.417999,50.721878 
M139.577118,87.022911 
	C137.379486,90.096184 136.102798,94.204086 130.724258,94.813049 
	C131.031387,92.395111 131.013657,90.400116 131.564041,88.576591 
	C133.769012,81.271011 136.466843,74.099434 138.351044,66.717155 
	C139.536545,62.072365 140.185013,56.820240 135.658157,53.316483 
	C131.215103,49.877602 126.283119,47.533028 120.408836,50.331764 
	C119.326324,50.847515 117.633209,51.121616 116.657814,50.634480 
	C113.220871,48.917995 111.784554,50.448177 110.811348,53.511356 
	C110.006271,56.045341 109.114716,58.562561 108.082443,61.011753 
	C104.215302,70.187050 100.515106,79.446495 96.218903,88.418976 
	C94.885445,91.203873 91.860168,93.178696 89.609436,95.524391 
	C88.977905,95.131454 88.346375,94.738518 87.714844,94.345581 
	C88.453850,91.235146 88.965462,88.048798 89.973907,85.028328 
	C93.181969,75.419548 96.433159,65.819725 99.967216,56.327957 
	C101.359009,52.589863 99.066742,51.600498 96.628365,50.404354 
	C93.647644,48.942165 92.367744,50.711933 91.453796,53.180645 
	C90.356621,56.144264 89.362526,59.156399 88.080582,62.039371 
	C83.773987,71.724487 80.026535,81.743027 74.788811,90.904274 
	C70.028160,99.231087 61.633015,102.866386 51.972015,102.854576 
	C45.992939,102.847260 42.216030,99.274681 40.805943,93.468857 
	C38.639679,84.549614 41.897507,76.420349 44.184422,68.171249 
	C44.461090,67.173279 46.642479,66.301491 48.047749,66.094170 
	C52.147991,65.489243 56.404617,65.698944 60.415924,64.783218 
	C71.814842,62.181007 82.145180,57.450634 86.788528,45.784649 
	C89.387421,39.255180 89.413788,32.014053 83.826439,26.712513 
	C78.818085,21.960356 72.684174,19.706438 65.465881,22.183744 
	C58.415333,24.603483 53.587025,29.680052 49.794472,35.532482 
	C45.036648,42.874458 41.139328,50.774075 36.237896,59.568272 
	C33.763496,57.209698 30.176838,55.172890 28.684393,52.114231 
	C23.832138,42.169880 28.672186,33.545013 33.989960,25.450960 
	C27.660967,19.894346 26.342787,20.061558 22.676254,26.843397 
	C21.496037,29.026396 20.442865,31.325439 19.693775,33.686321 
	C15.487974,46.941601 19.583748,56.425175 32.000607,62.518509 
	C33.293831,63.153137 34.548882,63.865562 34.720795,63.956913 
	C33.744541,72.832031 32.464619,80.851227 32.105335,88.911461 
	C31.832127,95.040520 34.730286,100.319527 39.842518,103.822418 
	C49.908600,110.719681 65.124214,110.857460 74.586121,103.232269 
	C79.141800,99.560921 82.164192,97.781349 88.154930,100.522163 
	C92.188026,102.367340 97.748703,100.873627 103.327911,100.873627 
	C106.022255,93.629471 108.994232,85.749374 111.883537,77.839081 
	C114.715187,70.086617 118.404991,62.869068 124.902817,57.524155 
	C126.002541,56.619553 127.831726,56.601753 129.323883,56.174236 
	C129.699905,57.538162 130.534729,58.964020 130.360641,60.253681 
	C129.941284,63.360283 129.204636,66.448830 128.316132,69.462158 
	C126.485809,75.669655 124.097412,81.735649 122.630119,88.021278 
	C120.815392,95.795311 125.456345,101.645020 133.327026,100.920921 
	C137.737564,100.515152 141.940582,97.853806 146.860901,95.969894 
	C159.169128,106.112236 173.231415,100.873390 179.867325,92.264984 
	C182.389160,88.993546 184.237640,85.210144 186.502884,81.731628 
	C188.351654,78.892616 187.252518,77.253464 184.626709,75.799164 
	C181.613678,74.130417 179.731323,74.863625 178.207504,77.884117 
	C176.564590,81.140709 174.837387,84.407677 172.709564,87.354256 
	C169.593170,91.669792 165.477127,94.714363 159.902374,95.113251 
	C154.827957,95.476357 152.888275,93.916252 152.070389,88.947823 
	C151.304047,84.292381 153.534149,80.336662 157.302719,78.945091 
	C161.963348,77.224144 166.961182,75.856636 170.977798,73.113167 
	C174.786774,70.511513 178.302261,66.753403 180.479187,62.713089 
	C182.307098,59.320553 180.927582,55.101128 177.162125,52.701912 
	C172.642059,49.821888 167.874283,48.162647 162.636566,50.929695 
	C155.966202,54.453613 152.050430,60.402969 148.899323,66.920349 
	C145.790527,73.350281 142.904465,79.887894 139.577118,87.022911 
M103.032646,44.644482 
	C106.203537,40.492832 104.475197,36.738449 98.376671,35.523033 
	C96.915916,35.231907 94.467041,36.415329 93.624321,37.684994 
	C93.024681,38.588444 93.864517,41.548450 94.928810,42.223141 
	C97.064590,43.577080 99.793571,43.995274 103.032646,44.644482 
z"/>
<path fill="#FF88AB" opacity="1.000000" stroke="none" 
	d="
M273.460632,120.000000 
	C268.361420,114.933075 267.824799,109.030457 269.879364,102.834343 
	C275.160919,86.905998 280.641510,71.043732 285.949432,55.124004 
	C287.575745,50.246311 288.908722,45.270458 290.354614,40.333298 
	C290.587280,39.538818 291.001953,38.642117 290.829742,37.911125 
	C290.021729,34.482014 290.017822,29.909504 287.799866,28.075325 
	C286.095978,26.666233 280.992920,27.830662 278.329071,29.412579 
	C270.877075,33.837929 265.562317,40.297245 262.843781,48.790913 
	C257.579437,65.238655 252.066010,81.606583 246.766159,98.043167 
	C245.682709,101.403320 243.667419,100.694794 241.296890,99.959396 
	C238.646683,99.137245 237.382660,97.912415 238.435562,94.867767 
	C242.239227,83.868866 246.023727,72.858887 249.526291,61.761810 
	C252.073257,53.692234 254.634796,45.569096 256.225586,37.284683 
	C256.856079,34.001339 254.879501,30.217373 254.089935,26.661343 
	C250.995529,27.957363 247.160187,28.497747 244.934677,30.679918 
	C235.189407,40.235432 226.405838,50.413410 222.507690,64.160828 
	C219.527023,74.672600 215.489426,84.932198 211.254776,95.024010 
	C208.467300,101.667000 203.613434,103.091423 197.423950,100.580154 
	C193.164551,98.851982 191.010406,95.512337 192.867798,91.530807 
	C196.350098,84.066132 200.251419,76.702438 204.824585,69.862442 
	C212.402954,58.527634 220.631516,47.630909 222.692215,32.687630 
	C220.308289,33.929272 218.264740,35.003258 216.212677,36.060738 
	C208.422379,40.075256 200.448822,43.328217 191.434540,40.916901 
	C182.753342,38.594685 177.874283,33.444080 177.918610,26.444775 
	C177.929306,24.758308 179.115982,23.079292 179.761856,21.396851 
	C181.761017,22.718237 183.771530,24.023258 185.740692,25.387936 
	C185.924728,25.515469 185.854919,26.019358 185.890244,26.349861 
	C186.945038,36.217350 192.042938,38.067509 201.175674,34.087891 
	C210.209900,30.151201 218.331696,24.096418 226.780777,18.853186 
	C230.069748,16.812151 233.947250,17.025846 235.234390,20.087744 
	C235.992188,21.890429 235.554245,24.195768 235.693756,27.101402 
	C245.882309,17.596600 255.719528,16.854403 264.657471,29.190844 
	C266.791992,27.685991 268.850616,26.111317 271.027557,24.722017 
	C278.904541,19.695030 286.473572,19.892612 293.801270,25.463583 
	C300.333771,30.429995 300.002380,37.595860 298.152222,44.156536 
	C294.733917,56.278042 290.281525,68.107101 286.290314,80.068146 
	C283.662506,87.943321 280.984711,95.804108 278.515686,103.729401 
	C275.445465,113.584610 275.893951,114.539436 284.828247,119.697998 
	C281.307098,120.000000 277.614166,120.000000 273.460632,120.000000 
M203.528046,84.191093 
	C201.984070,87.521172 200.440094,90.851242 198.434357,95.177269 
	C204.086533,92.357567 206.516037,87.861526 206.646240,81.288788 
	C205.601425,82.200363 204.782944,82.914459 203.528046,84.191093 
M207.616837,79.534241 
	C207.616837,79.534241 207.454407,79.435112 207.454407,79.435112 
	C207.454407,79.435112 207.474548,79.641380 207.616837,79.534241 
z"/>
<path fill="#FF88AB" opacity="1.000000" stroke="none" 
	d="
M139.748901,86.700592 
	C142.904465,79.887894 145.790527,73.350281 148.899323,66.920349 
	C152.050430,60.402969 155.966202,54.453613 162.636566,50.929695 
	C167.874283,48.162647 172.642059,49.821888 177.162125,52.701912 
	C180.927582,55.101128 182.307098,59.320553 180.479187,62.713089 
	C178.302261,66.753403 174.786774,70.511513 170.977798,73.113167 
	C166.961182,75.856636 161.963348,77.224144 157.302719,78.945091 
	C153.534149,80.336662 151.304047,84.292381 152.070389,88.947823 
	C152.888275,93.916252 154.827957,95.476357 159.902374,95.113251 
	C165.477127,94.714363 169.593170,91.669792 172.709564,87.354256 
	C174.837387,84.407677 176.564590,81.140709 178.207504,77.884117 
	C179.731323,74.863625 181.613678,74.130417 184.626709,75.799164 
	C187.252518,77.253464 188.351654,78.892616 186.502884,81.731628 
	C184.237640,85.210144 182.389160,88.993546 179.867325,92.264984 
	C173.231415,100.873390 159.169128,106.112236 146.860901,95.969894 
	C141.940582,97.853806 137.737564,100.515152 133.327026,100.920921 
	C125.456345,101.645020 120.815392,95.795311 122.630119,88.021278 
	C124.097412,81.735649 126.485809,75.669655 128.316132,69.462158 
	C129.204636,66.448830 129.941284,63.360283 130.360641,60.253681 
	C130.534729,58.964020 129.699905,57.538162 129.323883,56.174236 
	C127.831726,56.601753 126.002541,56.619553 124.902817,57.524155 
	C118.404991,62.869068 114.715187,70.086617 111.883537,77.839081 
	C108.994232,85.749374 106.022255,93.629471 103.327911,100.873627 
	C97.748703,100.873627 92.188026,102.367340 88.154930,100.522163 
	C82.164192,97.781349 79.141800,99.560921 74.586121,103.232269 
	C65.124214,110.857460 49.908600,110.719681 39.842518,103.822418 
	C34.730286,100.319527 31.832127,95.040520 32.105335,88.911461 
	C32.464619,80.851227 33.744541,72.832031 34.720795,63.956913 
	C34.548882,63.865562 33.293831,63.153137 32.000607,62.518509 
	C19.583748,56.425175 15.487974,46.941601 19.693775,33.686321 
	C20.442865,31.325439 21.496037,29.026396 22.676254,26.843397 
	C26.342787,20.061558 27.660967,19.894346 33.989960,25.450960 
	C28.672186,33.545013 23.832138,42.169880 28.684393,52.114231 
	C30.176838,55.172890 33.763496,57.209698 36.237896,59.568272 
	C41.139328,50.774075 45.036648,42.874458 49.794472,35.532482 
	C53.587025,29.680052 58.415333,24.603483 65.465881,22.183744 
	C72.684174,19.706438 78.818085,21.960356 83.826439,26.712513 
	C89.413788,32.014053 89.387421,39.255180 86.788528,45.784649 
	C82.145180,57.450634 71.814842,62.181007 60.415924,64.783218 
	C56.404617,65.698944 52.147991,65.489243 48.047749,66.094170 
	C46.642479,66.301491 44.461090,67.173279 44.184422,68.171249 
	C41.897507,76.420349 38.639679,84.549614 40.805943,93.468857 
	C42.216030,99.274681 45.992939,102.847260 51.972015,102.854576 
	C61.633015,102.866386 70.028160,99.231087 74.788811,90.904274 
	C80.026535,81.743027 83.773987,71.724487 88.080582,62.039371 
	C89.362526,59.156399 90.356621,56.144264 91.453796,53.180645 
	C92.367744,50.711933 93.647644,48.942165 96.628365,50.404354 
	C99.066742,51.600498 101.359009,52.589863 99.967216,56.327957 
	C96.433159,65.819725 93.181969,75.419548 89.973907,85.028328 
	C88.965462,88.048798 88.453850,91.235146 87.714844,94.345581 
	C88.346375,94.738518 88.977905,95.131454 89.609436,95.524391 
	C91.860168,93.178696 94.885445,91.203873 96.218903,88.418976 
	C100.515106,79.446495 104.215302,70.187050 108.082443,61.011753 
	C109.114716,58.562561 110.006271,56.045341 110.811348,53.511356 
	C111.784554,50.448177 113.220871,48.917995 116.657814,50.634480 
	C117.633209,51.121616 119.326324,50.847515 120.408836,50.331764 
	C126.283119,47.533028 131.215103,49.877602 135.658157,53.316483 
	C140.185013,56.820240 139.536545,62.072365 138.351044,66.717155 
	C136.466843,74.099434 133.769012,81.271011 131.564041,88.576591 
	C131.013657,90.400116 131.031387,92.395111 130.724258,94.813049 
	C136.102798,94.204086 137.379486,90.096184 139.748901,86.700592 
M156.733902,70.919395 
	C162.956772,69.214600 168.585495,66.516220 171.932220,60.680641 
	C172.618378,59.484211 172.758362,57.111443 172.018509,56.218269 
	C171.361084,55.424622 168.885178,55.387096 167.641205,55.955429 
	C161.192825,58.901398 157.513153,64.156860 155.772644,71.099442 
	C155.842300,71.056290 155.911972,71.013138 156.733902,70.919395 
M65.600304,55.225555 
	C67.596626,54.030262 69.725777,53.009048 71.563934,51.606464 
	C76.712875,47.677608 79.935341,42.573807 79.936600,35.916439 
	C79.938042,28.274315 75.848495,25.203054 68.979935,28.325506 
	C55.613693,34.401806 50.963238,47.133507 45.500267,59.133141 
	C45.863827,59.751057 46.227383,60.368977 46.590942,60.986893 
	C52.707417,59.187859 58.823887,57.388824 65.600304,55.225555 
M87.210670,85.729126 
	C88.136391,82.782646 89.062119,79.836166 89.987846,76.889687 
	C89.315628,76.695351 88.643410,76.501015 87.971199,76.306679 
	C86.871933,80.237625 85.772659,84.168571 84.673393,88.099525 
	C85.230591,88.256310 85.787781,88.413094 86.344971,88.569885 
	C86.577393,87.869682 86.809807,87.169479 87.210670,85.729126 
M105.480400,82.063789 
	C104.979866,83.815620 104.479332,85.567444 103.978798,87.319275 
	C104.448929,87.470436 104.919060,87.621605 105.389191,87.772774 
	C106.877792,84.084351 108.366394,80.395920 109.855003,76.707497 
	C109.367538,76.493202 108.880081,76.278900 108.392624,76.064606 
	C107.531807,77.838783 106.670990,79.612953 105.480400,82.063789 
M103.845703,89.968681 
	C103.416985,90.074921 102.988258,90.181160 102.559540,90.287392 
	C102.764420,90.626320 102.969307,90.965240 103.174194,91.304161 
	C103.419968,91.025017 103.665733,90.745872 103.845703,89.968681 
M85.395615,91.477448 
	C85.395615,91.477448 85.510696,91.400749 85.395615,91.477448 
z"/>
<path fill="#FF87AB" opacity="1.000000" stroke="none" 
	d="
M334.713409,50.964058 
	C336.316803,50.335453 338.003540,49.022503 339.508026,49.205814 
	C344.127716,49.768696 346.099060,47.623142 347.081512,43.489563 
	C347.731171,40.756073 348.846832,38.124218 349.867981,35.491112 
	C350.637360,33.507164 351.201569,31.028086 354.351379,32.687332 
	C356.839172,33.997826 359.915710,34.847218 358.417542,38.797714 
	C357.244904,41.889927 356.100525,44.992867 355.015625,47.898117 
	C357.972656,49.669720 360.621185,51.256500 363.269745,52.843281 
	C363.103027,53.295033 362.936310,53.746784 362.769623,54.198536 
	C361.732605,54.490337 360.625793,55.178062 359.669922,55.009575 
	C353.546265,53.930199 351.251709,57.167572 349.728851,62.539932 
	C347.514832,70.350624 344.446503,77.915215 341.992401,85.663902 
	C341.120880,88.415581 340.979919,91.398636 340.505463,94.276070 
	C340.939026,94.640007 341.372620,95.003944 341.806183,95.367889 
	C343.877350,94.109802 346.702515,93.337059 347.881836,91.504906 
	C351.807800,85.405800 355.011902,78.847992 358.741089,72.614609 
	C362.541870,66.261581 366.001770,59.538231 370.781219,53.984093 
	C375.523834,48.472816 381.104858,48.390656 387.524536,51.664200 
	C393.778107,54.853054 394.964203,61.557762 390.430054,67.039131 
	C385.182159,73.383316 377.876007,76.130333 370.516968,78.815598 
	C365.294952,80.721085 362.355286,88.489151 365.680725,92.919113 
	C368.643097,96.865372 372.958191,95.543610 376.617065,94.049751 
	C383.750427,91.137299 387.416565,84.846245 390.318817,78.228027 
	C392.257507,73.807030 394.763245,73.793518 397.822205,76.535591 
	C398.721344,77.341560 399.494232,79.611649 399.008698,80.422440 
	C396.042603,85.375298 393.237701,90.599724 389.364075,94.796829 
	C381.766998,103.028297 369.076172,103.675461 360.408295,96.663551 
	C358.060791,94.764534 356.705811,94.649162 354.611633,96.748215 
	C349.189484,102.182968 342.986450,102.347061 336.289093,99.201790 
	C334.995300,98.594170 332.732147,98.114044 331.894135,98.789124 
	C326.741882,102.939682 321.593536,101.759796 316.545776,99.080490 
	C314.019165,97.739426 312.241028,97.752945 309.757050,99.322273 
	C304.970520,102.346344 299.846985,101.855492 295.104401,98.985023 
	C290.455963,96.171501 289.866699,91.256416 290.317963,86.640038 
	C291.300323,76.590408 294.445282,67.182503 300.416687,58.848682 
	C307.551727,48.890827 312.549591,47.522316 324.080353,52.861649 
	C325.502533,49.042915 327.999664,48.050938 331.782654,51.246399 
	C329.136322,60.525246 325.999451,69.239021 323.161041,78.048965 
	C321.434479,83.407928 318.649689,88.721878 320.688171,94.690971 
	C328.154999,93.686295 340.601959,70.774040 342.144836,56.542038 
	C339.388824,54.473396 337.051117,52.718723 334.713409,50.964058 
M314.271973,55.903988 
	C313.132965,56.542587 311.770752,56.960960 310.889618,57.853989 
	C302.469574,66.387497 298.775299,77.095810 297.398743,88.674561 
	C297.167084,90.623077 298.797699,92.792992 299.567902,94.860611 
	C301.624786,94.040413 303.818512,93.447044 305.689453,92.318573 
	C306.893921,91.592125 307.905609,90.211479 308.521545,88.897964 
	C312.600983,80.198082 316.781738,71.532349 320.434418,62.651855 
	C322.035278,58.759823 319.601562,56.140514 314.271973,55.903988 
M380.010559,65.543114 
	C381.589386,63.460678 383.676514,61.582100 384.614746,59.242752 
	C385.717163,56.494026 384.509705,54.734577 381.074066,55.551819 
	C375.814606,56.802898 368.992310,65.069809 368.741516,71.734673 
	C372.641174,69.645500 376.042999,67.823029 380.010559,65.543114 
z"/>
<path fill="#FFF0F4" opacity="1.000000" stroke="none" 
	d="
M334.386902,50.971600 
	C337.051117,52.718723 339.388824,54.473396 342.144836,56.542038 
	C340.601959,70.774040 328.154999,93.686295 320.688171,94.690971 
	C318.649689,88.721878 321.434479,83.407928 323.161041,78.048965 
	C325.999451,69.239021 329.136322,60.525246 332.121155,51.367020 
	C332.750092,50.968460 333.405243,50.973801 334.386902,50.971600 
z"/>
<path fill="#FF92B3" opacity="1.000000" stroke="none" 
	d="
M102.655182,44.722084 
	C99.793571,43.995274 97.064590,43.577080 94.928810,42.223141 
	C93.864517,41.548450 93.024681,38.588444 93.624321,37.684994 
	C94.467041,36.415329 96.915916,35.231907 98.376671,35.523033 
	C104.475197,36.738449 106.203537,40.492832 102.655182,44.722084 
z"/>
<path fill="#FFC2D4" opacity="1.000000" stroke="none" 
	d="
M203.746246,83.909828 
	C204.782944,82.914459 205.601425,82.200363 206.646240,81.288788 
	C206.516037,87.861526 204.086533,92.357567 198.434357,95.177269 
	C200.440094,90.851242 201.984070,87.521172 203.746246,83.909828 
z"/>
<path fill="#FFC2D4" opacity="1.000000" stroke="none" 
	d="
M207.545685,79.587814 
	C207.474548,79.641380 207.454407,79.435112 207.454407,79.435112 
	C207.454407,79.435112 207.616837,79.534241 207.545685,79.587814 
z"/>
<path fill="#FFF6F9" opacity="1.000000" stroke="none" 
	d="
M65.270332,55.407673 
	C58.823887,57.388824 52.707417,59.187859 46.590942,60.986893 
	C46.227383,60.368977 45.863827,59.751057 45.500267,59.133141 
	C50.963238,47.133507 55.613693,34.401806 68.979935,28.325506 
	C75.848495,25.203054 79.938042,28.274315 79.936600,35.916439 
	C79.935341,42.573807 76.712875,47.677608 71.563934,51.606464 
	C69.725777,53.009048 67.596626,54.030262 65.270332,55.407673 
z"/>
<path fill="#FFE9EF" opacity="1.000000" stroke="none" 
	d="
M156.030670,71.021004 
	C157.513153,64.156860 161.192825,58.901398 167.641205,55.955429 
	C168.885178,55.387096 171.361084,55.424622 172.018509,56.218269 
	C172.758362,57.111443 172.618378,59.484211 171.932220,60.680641 
	C168.585495,66.516220 162.956772,69.214600 156.368134,70.959229 
	C156.002365,70.999062 156.030670,71.021004 156.030670,71.021004 
z"/>
<path fill="#FF5D8D" opacity="1.000000" stroke="none" 
	d="
M87.126450,86.099197 
	C86.809807,87.169479 86.577393,87.869682 86.344971,88.569885 
	C85.787781,88.413094 85.230591,88.256310 84.673393,88.099525 
	C85.772659,84.168571 86.871933,80.237625 87.971199,76.306679 
	C88.643410,76.501015 89.315628,76.695351 89.987846,76.889687 
	C89.062119,79.836166 88.136391,82.782646 87.126450,86.099197 
z"/>
<path fill="#FF598B" opacity="1.000000" stroke="none" 
	d="
M105.645294,81.725464 
	C106.670990,79.612953 107.531807,77.838783 108.392624,76.064606 
	C108.880081,76.278900 109.367538,76.493202 109.855003,76.707497 
	C108.366394,80.395920 106.877792,84.084351 105.389191,87.772774 
	C104.919060,87.621605 104.448929,87.470436 103.978798,87.319275 
	C104.479332,85.567444 104.979866,83.815620 105.645294,81.725464 
z"/>
<path fill="#FF598B" opacity="1.000000" stroke="none" 
	d="
M103.878601,90.217697 
	C103.665733,90.745872 103.419968,91.025017 103.174194,91.304161 
	C102.969307,90.965240 102.764420,90.626320 102.559540,90.287392 
	C102.988258,90.181160 103.416985,90.074921 103.878601,90.217697 
z"/>
<path fill="#FF5D8D" opacity="1.000000" stroke="none" 
	d="
M85.453156,91.439102 
	C85.510696,91.400749 85.395615,91.477448 85.453156,91.439102 
z"/>
<path fill="#FFE9EF" opacity="1.000000" stroke="none" 
	d="
M155.992004,70.984528 
	C155.911972,71.013138 155.842300,71.056290 155.901657,71.060226 
	C156.030670,71.021004 156.002365,70.999062 155.992004,70.984528 
z"/>
<path fill="#FFF3F7" opacity="1.000000" stroke="none" 
	d="
M314.604187,55.766205 
	C319.601562,56.140514 322.035278,58.759823 320.434418,62.651855 
	C316.781738,71.532349 312.600983,80.198082 308.521545,88.897964 
	C307.905609,90.211479 306.893921,91.592125 305.689453,92.318573 
	C303.818512,93.447044 301.624786,94.040413 299.567902,94.860611 
	C298.797699,92.792992 297.167084,90.623077 297.398743,88.674561 
	C298.775299,77.095810 302.469574,66.387497 310.889618,57.853989 
	C311.770752,56.960960 313.132965,56.542587 314.604187,55.766205 
z"/>
<path fill="#FFE9F0" opacity="1.000000" stroke="none" 
	d="
M379.727692,65.771835 
	C376.042999,67.823029 372.641174,69.645500 368.741516,71.734673 
	C368.992310,65.069809 375.814606,56.802898 381.074066,55.551819 
	C384.509705,54.734577 385.717163,56.494026 384.614746,59.242752 
	C383.676514,61.582100 381.589386,63.460678 379.727692,65.771835 
z"/>
</svg>